<svg width="128" height="32" viewBox="0 0 128 32" fill="none" xmlns="http://www.w3.org/2000/svg">
<g clip-path="url(#clip0_1_175)">
<path d="M44.8831 10.7555C45.2987 10.7555 45.6312 10.7555 45.7143 10.8444C45.7974 10.9333 45.7974 11.0222 45.7974 11.3777C45.7974 11.5555 45.8805 11.8222 45.9637 11.8222C46.0468 11.8222 46.2961 11.7333 46.7117 11.3777C47.0442 11.2 47.2935 10.9333 47.7922 10.8444C48.2078 10.7555 48.6234 10.6666 49.039 10.6666C49.8701 10.6666 50.6182 11.0222 51.2831 11.6444C51.7818 12.0888 52.1974 12.7111 52.5299 13.5111C52.8624 14.3111 52.9455 15.0222 52.9455 15.9111C52.9455 17.7777 52.3637 19.1111 51.2 20.3555C50.2857 21.2444 49.3714 21.7777 48.2909 21.7777C47.7091 21.7777 47.2104 21.6888 46.5455 21.3333C46.4624 21.2444 46.3792 21.2444 46.213 21.2444C46.0468 21.2444 45.8805 21.4222 45.8805 21.8666C45.8805 22.4 46.0468 22.8444 46.3792 23.0222C46.7117 23.2 46.8779 23.4666 46.9611 23.4666C47.0442 23.5555 47.0442 23.6444 47.0442 23.9111C47.0442 24.3555 46.8779 24.7111 46.2961 24.8888C45.8805 25.0666 45.2156 25.2444 44.3844 25.2444C42.9714 25.2444 41.6416 24.8888 40.5611 24.2666C40.0624 23.9111 39.7299 23.6444 39.7299 23.1111C39.7299 22.9333 39.7299 22.7555 39.813 22.6666C39.8961 22.5777 39.9792 22.4888 40.3117 22.3111C40.6442 22.1333 40.8935 21.8666 40.8935 21.3333C40.9766 20.8888 40.9766 19.6444 41.0598 17.4222C41.0598 15.7333 40.9766 14.7555 40.8935 14.4888C40.8935 14.4 40.8104 14.4 40.8104 14.4C40.8104 14.4 40.7273 14.2222 40.3948 14.2222C40.2286 14.2222 39.9792 14.1333 39.8961 13.8666C39.813 13.6888 39.7299 13.5111 39.7299 13.2444C39.7299 12.9777 39.813 12.7111 40.0624 12.4444C40.2286 12.2666 40.5611 12 40.9766 11.8222C42.639 11.2 43.9689 10.7555 44.8831 10.7555ZM45.8805 14.7555L45.7974 17.6888C45.7974 17.7777 45.7974 17.8666 45.7974 18.0444C45.7974 18.2222 45.8805 18.4888 46.1299 18.5777C46.2961 18.6666 46.5455 18.7555 46.8779 18.7555C47.7922 18.7555 48.2909 17.9555 48.2909 16.3555C48.2909 15.2888 48.1247 14.6666 47.7091 14.2222C47.5429 14.0444 47.2104 13.7777 46.8779 13.7777C46.213 13.7777 45.8805 14.1333 45.8805 14.7555Z" fill="#3F3B3D"/>
<path d="M62.8364 16.5333H58.1818C58.0156 16.5333 57.8494 16.6222 57.8494 16.8889C57.8494 17.3333 58.0156 17.7778 58.5974 18.2222C59.1792 18.6666 59.5948 18.8444 60.0935 18.8444C60.426 18.8444 60.8416 18.7555 61.174 18.6666C61.5896 18.5778 61.9221 18.3111 62.1714 18.2222C62.3377 18.0444 62.587 18.0444 62.6701 18.0444C62.8364 18.0444 63.0026 18.1333 63.1688 18.4C63.3351 18.5778 63.3351 18.8444 63.3351 19.2C63.3351 19.7333 63.0026 20.1777 62.4208 20.7111C61.4234 21.6 60.0935 22.0444 58.7636 22.0444C57.3507 22.0444 56.2701 21.6 55.1896 20.7111C54.6909 20.2666 54.3584 19.7333 54.1091 19.2C53.6935 18.4 53.5273 17.6 53.5273 16.6222C53.5273 15.4666 53.8597 14.3111 54.5247 13.4222C55.1065 12.5333 55.8546 12 56.7688 11.5555C57.5169 11.2 58.1818 11.1111 59.013 11.1111C60.3429 11.1111 61.3403 11.5555 62.2546 12.2666C62.6701 12.7111 63.0857 13.1555 63.3351 13.6889C63.6675 14.3111 63.8338 14.8444 63.8338 15.3777C63.8338 15.8222 63.7507 16.2666 63.5013 16.5333C63.3351 16.3555 63.1688 16.5333 62.8364 16.5333ZM58.4312 14.5778H59.4286C59.8442 14.5778 60.0104 14.4 60.0104 13.9555C60.0104 13.5111 59.9273 13.3333 59.6779 12.9778C59.5117 12.8 59.1792 12.6222 58.8468 12.6222C58.4312 12.6222 58.0987 12.7111 57.9325 13.0666C57.7662 13.4222 57.6 13.6 57.6 13.9555C57.6 14.1333 57.6 14.3111 57.6831 14.4C58.0156 14.5778 58.1818 14.5778 58.4312 14.5778Z" fill="#3F3B3D"/>
<path d="M70.2338 13.5111V17.0666C70.2338 17.5111 70.3169 17.8666 70.5663 18.1333C70.7325 18.4888 70.9818 18.5777 71.3143 18.5777C71.6468 18.5777 71.8961 18.4888 72.3117 18.1333C72.4779 18.1333 72.6442 18.1333 72.7273 18.1333C72.8935 18.1333 73.0598 18.2222 73.1429 18.4888C73.226 18.6666 73.3091 18.9333 73.3091 19.1111C73.3091 19.5555 73.1429 20 72.5611 20.4444C71.6468 21.3333 70.4 21.7777 69.1533 21.7777C68.0727 21.7777 67.2416 21.4222 66.6598 20.8C66.0779 20.1777 65.6624 19.2888 65.6624 18.2222V13.2444C65.6624 13.0666 65.6624 13.0666 65.5792 12.8888C65.5792 12.8888 65.4961 12.8 65.2468 12.8H64.2494C64.0831 12.8 63.9169 12.8 63.8338 12.7111C63.7507 12.6222 63.7507 12.5333 63.7507 12.2666V11.8222C63.7507 11.6444 63.8338 11.4666 63.9169 11.3777L68.6546 8.26662C68.7377 8.17773 68.987 8.17773 69.0702 8.17773H69.9013C70.0676 8.17773 70.2338 8.17773 70.2338 8.26662C70.3169 8.35551 70.3169 8.4444 70.3169 8.71107V10.1333C70.3169 10.3111 70.3169 10.4888 70.4 10.5777C70.4831 10.6666 70.5663 10.6666 70.8156 10.6666H72.6442C72.8104 10.6666 73.0598 10.6666 73.1429 10.7555C73.226 10.8444 73.226 11.1111 73.226 11.3777V12C73.226 12.3555 73.226 12.5333 73.1429 12.8C73.0598 12.8888 72.8104 12.9777 72.6442 12.9777H70.8156C70.6494 12.9777 70.4831 12.9777 70.4 13.0666C70.2338 13.1555 70.2338 13.2444 70.2338 13.5111Z" fill="#3F3B3D"/>
<path d="M77.7974 10.6666C78.1299 10.6666 78.7117 10.7555 79.3766 10.8444C79.5429 10.8444 79.7091 10.8444 79.7922 10.8444C79.8753 10.8444 80.1247 10.7555 80.5403 10.6666C80.7065 10.5778 80.8727 10.5778 80.9559 10.5778C81.2883 10.5778 81.5377 10.7555 81.8701 11.2C82.2026 11.5555 82.3688 11.8222 82.452 12.2666C82.6182 12.7111 82.6182 13.0666 82.6182 13.3333C82.6182 13.6889 82.5351 13.8666 82.2857 14.1333C82.1195 14.3111 81.8701 14.4889 81.5377 14.4889C81.3714 14.4889 81.1221 14.4 80.9559 14.3111C80.7896 14.2222 80.4572 13.8666 80.0416 13.5111C79.626 13.0666 79.2104 12.8889 79.0442 12.8889C78.8779 12.8889 78.7117 12.9778 78.5455 13.0666C78.4623 13.1555 78.3792 13.4222 78.3792 13.6C78.3792 13.9555 78.7117 14.2222 79.2935 14.5778C80.374 15.1111 81.2883 15.6444 81.9533 16.2666C82.452 16.8 82.7844 17.4222 82.7844 18.2222C82.7844 19.2 82.3688 20.0889 81.5377 20.7111C80.7896 21.2444 80.0416 21.6 79.0442 21.6C78.7117 21.6 78.2961 21.6 77.6312 21.5111C76.9662 21.3333 76.5507 21.3333 76.4675 21.3333C76.3844 21.3333 76.3013 21.3333 76.1351 21.3333C75.9688 21.3333 75.8026 21.3333 75.7195 21.3333C75.387 21.3333 75.1377 21.2444 74.9714 21.1555C74.639 20.9778 74.4727 20.5333 74.1403 19.8222C73.974 19.2889 73.8078 18.7555 73.8078 18.4C73.8078 17.7778 73.974 17.4222 74.5558 17.4222C74.7221 17.4222 74.9714 17.5111 75.0546 17.6C75.2208 17.6889 75.5533 18.0444 76.052 18.6666C76.3844 19.0222 76.5507 19.2 76.8 19.2889C76.9662 19.3778 77.2156 19.4666 77.3818 19.4666C77.5481 19.4666 77.7974 19.3778 77.8805 19.2889C77.9636 19.2 78.0468 18.9333 78.0468 18.7555C78.0468 18.4 77.7143 18.1333 77.2156 17.8666C76.1351 17.3333 75.387 16.7111 74.8883 16.1778C74.3896 15.5555 74.1403 14.8444 74.1403 14.1333C74.1403 13.2444 74.3065 12.5333 74.8883 12C75.5533 11.1111 76.5507 10.6666 77.7974 10.6666Z" fill="#3F3B3D"/>
<path d="M88.3533 10.7555C88.7688 10.7555 89.1013 10.7555 89.1844 10.8444C89.2675 10.9333 89.2675 11.0222 89.2675 11.3777C89.2675 11.5555 89.3507 11.8222 89.4338 11.8222C89.5169 11.8222 89.7662 11.7333 90.1818 11.3777C90.5143 11.2 90.7637 10.9333 91.2624 10.8444C91.6779 10.7555 92.0935 10.6666 92.5091 10.6666C93.3403 10.6666 94.0883 11.0222 94.7533 11.6444C95.252 12.0888 95.6675 12.7111 96 13.5111C96.3325 14.3111 96.4156 15.0222 96.4156 15.9111C96.4156 17.7777 95.8338 19.1111 94.6701 20.3555C93.7559 21.2444 92.8416 21.7777 91.7611 21.7777C91.1792 21.7777 90.6805 21.6888 90.0156 21.3333C89.9325 21.2444 89.8494 21.2444 89.6831 21.2444C89.5169 21.2444 89.3507 21.4222 89.3507 21.8666C89.3507 22.4 89.5169 22.8444 89.8494 23.0222C90.1818 23.2 90.3481 23.4666 90.4312 23.4666C90.5143 23.5555 90.5143 23.6444 90.5143 23.9111C90.5143 24.3555 90.3481 24.7111 89.7662 24.8888C89.3507 25.0666 88.6857 25.2444 87.8546 25.2444C86.4416 25.2444 85.1117 24.8888 84.0312 24.2666C83.5325 23.9111 83.2 23.6444 83.2 23.1111C83.2 22.9333 83.2 22.7555 83.2831 22.6666C83.3662 22.5777 83.4494 22.4888 83.7818 22.3111C84.1143 22.1333 84.3636 21.8666 84.3636 21.3333C84.4468 20.8888 84.4468 19.6444 84.5299 17.4222C84.5299 15.7333 84.4468 14.7555 84.3636 14.4888C84.3636 14.4 84.2805 14.4 84.2805 14.4C84.2805 14.4 84.1974 14.2222 83.9481 14.2222C83.7818 14.2222 83.5325 14.1333 83.4494 13.8666C83.3662 13.6888 83.2831 13.5111 83.2831 13.2444C83.2831 12.9777 83.3662 12.7111 83.6156 12.4444C83.7818 12.2666 84.1143 12 84.5299 11.8222C86.1922 11.2 87.3559 10.7555 88.3533 10.7555ZM89.3507 14.7555L89.2675 17.6888C89.2675 17.7777 89.2675 17.8666 89.2675 18.0444C89.2675 18.2222 89.3507 18.4888 89.6 18.5777C89.7662 18.6666 90.0156 18.7555 90.3481 18.7555C91.2623 18.7555 91.7611 17.9555 91.7611 16.3555C91.7611 15.2888 91.5948 14.6666 91.1792 14.2222C91.013 14.0444 90.6805 13.7777 90.3481 13.7777C89.6831 13.7777 89.3507 14.1333 89.3507 14.7555Z" fill="#3F3B3D"/>
<path d="M102.732 12.8V16.2666C102.732 17.7778 102.732 18.6666 102.816 18.8444C102.816 19.0222 102.982 19.2889 103.314 19.3778C103.481 19.4666 103.73 19.5555 103.813 19.7333C103.896 19.8222 103.896 19.9111 103.896 20.1778C103.896 20.3555 103.813 20.6222 103.73 20.8C103.564 20.9778 103.314 21.1555 103.148 21.2444C102.649 21.3333 101.818 21.4222 100.738 21.4222C99.4078 21.4222 98.4935 21.3333 97.9948 21.0666C97.8286 20.9778 97.5792 20.8889 97.413 20.6222C97.2468 20.4444 97.2468 20.1778 97.2468 20C97.2468 19.8222 97.2468 19.6444 97.3299 19.5555C97.413 19.4666 97.6624 19.3778 97.8286 19.2C98.1611 19.1111 98.2442 18.7555 98.3273 18.2222C98.4104 17.2444 98.4935 15.9111 98.4935 14.2222C98.4935 12.5333 98.4935 11.3778 98.4104 10.8444C98.3273 10.3111 98.0779 9.95554 97.6624 9.77776C97.3299 9.59998 97.1637 9.4222 97.0805 9.33331C96.9974 9.24443 96.9143 9.15554 96.9143 8.88887C96.9143 8.53331 97.0805 8.26665 97.413 7.99998C97.7455 7.8222 98.2442 7.46665 98.9091 7.19998C99.4078 7.11109 99.9065 6.84443 100.738 6.75554C101.486 6.66665 102.068 6.57776 102.317 6.57776C102.816 6.57776 103.148 6.93331 103.148 7.64443C103.148 7.8222 103.148 8.44442 103.065 9.24442C102.816 10.6666 102.816 11.8222 102.732 12.8Z" fill="#3F3B3D"/>
<path d="M110.213 10.6666C111.294 10.6666 112.374 11.0222 113.122 11.6444C113.538 12 113.87 12.4444 114.036 12.8C114.203 13.2444 114.369 13.7777 114.369 14.4888V16.0888C114.369 17.1555 114.452 17.9555 114.535 18.2222C114.618 18.3111 114.618 18.4 114.701 18.5777C114.784 18.5777 114.868 18.6666 115.117 18.6666C115.366 18.6666 115.449 18.8444 115.449 19.1111C115.449 19.4666 115.366 19.7333 115.034 20.1777C114.701 20.5333 114.452 20.8 114.036 21.1555C113.538 21.5111 113.039 21.6 112.457 21.6C111.709 21.6 111.21 21.4222 110.878 20.8C110.795 20.6222 110.545 20.4444 110.462 20.4444C110.379 20.4444 110.13 20.5333 109.964 20.6222C109.216 21.1555 108.551 21.4222 107.72 21.4222C106.805 21.4222 106.14 21.2444 105.558 20.8C105.226 20.6222 104.977 20.1777 104.727 19.7333C104.561 19.2888 104.395 18.8444 104.395 18.4C104.395 17.6 104.727 16.9777 105.226 16.4444C106.14 15.5555 107.47 15.1111 109.133 15.0222C109.548 15.0222 109.714 15.0222 109.881 14.9333C109.964 14.8444 109.964 14.5777 109.964 14.4C109.964 13.6 109.881 13.0666 109.797 12.8C109.714 12.5333 109.382 12.2666 109.049 12.2666C108.883 12.2666 108.634 12.3555 108.551 12.4444C108.384 12.5333 108.218 12.8 107.969 13.2444C107.387 14.1333 106.722 14.6666 106.14 14.6666C105.808 14.6666 105.558 14.5777 105.309 14.3111C105.06 14.0444 104.977 13.8666 104.977 13.4222C104.977 13.0666 105.06 12.8 105.392 12.4444C105.725 12.0888 105.974 11.8222 106.39 11.5555C107.636 11.0222 108.883 10.6666 110.213 10.6666ZM109.548 16.8C109.216 16.8 109.049 16.8888 108.717 17.2444C108.551 17.4222 108.384 17.7777 108.384 18.1333C108.384 18.4888 108.468 18.7555 108.551 19.0222C108.717 19.2 108.966 19.3777 109.133 19.3777C109.631 19.3777 109.964 18.9333 109.964 17.9555C109.964 17.5111 109.964 17.3333 109.881 17.1555C109.881 16.8888 109.797 16.8 109.548 16.8Z" fill="#3F3B3D"/>
<path d="M125.008 16L123.678 19.9111C123.345 20.8889 123.096 21.6 122.681 22.3111C122.348 22.9333 121.932 23.3778 121.6 23.8222C120.686 24.7111 119.688 25.1555 118.442 25.1555C117.444 25.1555 116.613 24.8 116.031 24.2666C115.532 23.8222 115.283 23.2889 115.283 22.6666C115.283 22.1333 115.449 21.6889 115.782 21.2444C116.114 20.8889 116.53 20.7111 117.029 20.7111C117.527 20.7111 117.943 20.8889 118.109 21.2444C118.192 21.3333 118.275 21.6 118.442 21.6889C118.442 21.7778 118.525 22.1333 118.608 22.4889C118.691 22.8444 118.774 22.9333 119.107 22.9333C119.273 22.9333 119.522 22.8444 119.605 22.5778C119.688 22.4 119.771 22.1333 119.771 21.7778C119.771 21.4222 119.605 20.8889 119.273 20.0889L116.862 14.5778C116.53 14.0444 116.447 13.6 116.281 13.5111C116.197 13.4222 115.865 13.1555 115.449 12.9778C115.366 12.8889 115.283 12.8 115.117 12.6222C114.951 12.4444 115.034 12.2666 115.034 12.1778C115.034 11.5555 115.616 11.1111 116.779 10.8444C117.61 10.7555 118.525 10.6666 119.522 10.6666C120.27 10.6666 120.769 10.7555 121.101 10.8444C121.6 11.0222 121.932 11.3778 121.932 11.9111C121.932 12.0889 121.849 12.3555 121.766 12.5333C121.683 12.7111 121.6 12.9778 121.6 13.1555C121.6 13.3333 121.6 13.5111 121.683 13.6889C121.766 13.8666 121.849 14.2222 122.099 14.6666C122.431 15.2 122.597 15.4666 122.847 15.4666C123.013 15.4666 123.262 15.2889 123.429 14.8444C123.595 14.4 123.761 13.9555 123.761 13.5111C123.761 13.1555 123.678 12.9778 123.595 12.7111C123.262 12.3555 123.179 12.1778 123.179 11.8222C123.179 11.4666 123.345 11.2 123.927 10.9333C124.343 10.7555 124.925 10.5778 125.756 10.5778C127.169 10.5778 127.917 10.9333 127.917 11.6444C127.917 11.8222 127.834 12.0889 127.751 12.2666C127.668 12.3555 127.335 12.6222 126.919 12.7111C126.587 12.8 126.338 13.0666 126.088 13.3333C125.756 14.0444 125.423 14.8444 125.008 16Z" fill="#3F3B3D"/>
<path d="M5.56884 27.7334C4.73768 27.9111 4.48833 28.1778 3.98962 28.6223C3.98962 29.4223 4.07274 30.0445 4.07274 30.9334C4.07274 31.3778 4.48833 32.0889 5.48573 31.4667C6.15066 30.9334 5.8182 28.4445 6.73248 27.3778C6.3169 27.3778 5.98443 27.6445 5.56884 27.7334Z" fill="#3F3B3D"/>
<path d="M33.2467 17.3333C32.1662 17.4222 28.5922 17.5111 26.5143 16C26.5143 16.0889 26.5974 16.1778 26.6805 16.3556C27.9273 18.2222 29.6727 19.2 31.2519 19.5556C32 19.4667 32.5818 19.3778 33.2467 19.0222C34.4935 18.6667 33.9948 17.2444 33.2467 17.3333Z" fill="#3F3B3D"/>
<path d="M14.6286 3.19997C16.2078 2.39997 18.3688 3.82219 20.2805 6.39997C20.613 6.31108 20.8624 6.04441 21.1948 5.95553C19.1169 3.19997 16.7065 1.77775 14.9611 2.57775C14.213 2.9333 13.7143 3.46664 13.3818 4.26664C13.7974 3.7333 14.213 3.46664 14.6286 3.19997Z" fill="#3F3B3D"/>
<path d="M24.5195 22.0444C24.187 23.4667 23.5221 24.5333 22.6078 24.9778C22.1091 25.1555 21.6104 25.1555 21.1117 25.0667C21.9429 25.4222 22.6078 25.4222 23.3559 25.0667C24.2701 24.6222 24.9351 23.6444 25.3507 22.4C25.0182 22.2222 24.6857 22.1333 24.5195 22.0444Z" fill="#3F3B3D"/>
<path d="M21.1948 4.53333C18.9507 1.95555 16.4572 0.622222 14.2961 1.51111C10.9715 2.93333 10.2234 9.68889 12.7169 16.5333C15.2104 23.3778 19.9481 27.7333 23.3559 26.4C24.6857 25.8667 25.6 24.5333 26.0156 22.7556C26.1818 22.1333 26.5143 26.6667 23.0234 28.0889C19.4494 29.6 14.3792 24.7111 11.5533 17.1556C8.7273 9.51111 9.55846 2.04444 13.1325 0.444444C15.3766 -0.8 18.5351 1.06667 21.1948 4.53333Z" fill="#3F3B3D"/>
<path d="M10.1403 16.8889C8.39481 12 8.22858 7.11111 9.55845 4.26666C7.97923 5.24444 6.73248 9.24444 7.97923 14.6667C6.06754 15.8222 5.15326 16.1778 3.15845 15.6444C1.57923 15.2 0.997411 13.5111 0.914294 13.6889C-0.498693 16.6222 2.65975 18.8444 4.48832 18.7556C4.32209 21.8667 2.49352 23.5556 1.66235 24.7111C0.664944 26.3111 0.415593 28.3556 0.249359 31.1111C0.249359 31.5556 0.581827 32.4444 1.57923 31.9111C2.16105 31.5556 2.16105 29.0667 3.32468 28.0889C4.32209 27.2 4.73767 27.2889 6.64936 26.5778C8.8104 25.6889 10.7221 24.2667 10.8883 22.4C10.9714 22.5778 11.2208 22.9333 11.387 23.2C14.0468 27.2889 16.2078 26.5778 16.2078 26.5778C13.5481 24.4444 11.5533 20.7111 10.1403 16.8889Z" fill="#3F3B3D"/>
<path d="M32.2494 4.44446C32.4156 3.82223 32.7481 2.31112 32.0831 1.77779C31.7507 1.60001 31.3351 2.57779 30.3377 3.20001C30.8364 3.2889 31.7507 3.73334 32.2494 4.44446Z" fill="#3F3B3D"/>
<path d="M33.6624 20.8C32.1663 20.8 28.1766 20 26.0987 16.8C24.1039 13.6 26.265 10.1333 29.9221 11.2C35.6572 12.8889 35.9065 9.68889 35.7403 8.62222C34.0779 8 32.8312 7.82222 32.665 6.66667C32.1663 4.17778 29.9221 4 29.3403 3.64445C29.2572 3.2 28.7585 1.24445 27.7611 1.24445C27.2624 1.24445 27.6779 3.28889 26.1818 4.71111C21.4442 6.66667 16.7065 9.15556 12.6338 11.7333C12.8 13.1556 13.2156 14.6667 13.8805 16.1778C14.3792 17.6889 15.1273 19.1111 15.7922 20.2667C16.7896 20.2667 18.0364 20.2667 19.6156 20.3556C24.9351 20.5333 28.8416 23.5556 33.5792 22.7556C34.6598 22.3111 34.4104 20.8889 33.6624 20.8ZM30.5039 6.22222C30.8364 6.22222 30.9195 6.4 30.9195 6.75556C30.9195 7.11111 30.7533 7.2 30.4208 7.2C30.0883 7.2 30.0052 7.02222 30.0052 6.66667C30.1715 6.48889 30.3377 6.22222 30.5039 6.22222Z" fill="#3F3B3D"/>
</g>
<defs>
<clipPath id="clip0_1_175">
<rect width="128" height="32" fill="white"/>
</clipPath>
</defs>
</svg>
