<svg width="128" height="32" viewBox="0 0 128 32" fill="none" xmlns="http://www.w3.org/2000/svg">
<g clip-path="url(#clip0_1_157)">
<path d="M3.87282 0.711121L10.6338 24L16.6072 3.02223L22.7118 24.0889L29.2759 0.711121H31.1138L22.3836 31.6445H21.2677L15.6882 12.4445L10.3056 31.5556H8.99282L0.131279 0.711121H3.87282Z" fill="#3F3B3D"/>
<path d="M38.9251 0L49.559 31.2889H45.6862L42.2072 21.0667H32.5579L29.0133 31.2889H27.1097L38.0062 0H38.9251ZM33.2144 19.1111H41.5508L37.4154 7.11111L33.2144 19.1111Z" fill="#3F3B3D"/>
<path d="M53.038 0.711121H56.7795V29.3333H68.1354V31.2889H52.9723V0.711121H53.038Z" fill="#3F3B3D"/>
<path d="M105.223 0.711121V2.66668H93.3415V13.6889H101.284V15.6445H93.3415V29.3333H105.223V31.2889H89.4687V0.711121H105.223Z" fill="#3F3B3D"/>
<path d="M109.227 0.711121H111.327L126.096 23.1111H126.228V0.711121H127.869V32H127.081L111.065 7.20001H110.933V31.3778H109.161L109.227 0.711121Z" fill="#3F3B3D"/>
<path d="M84.9395 9.42219C84.2831 7.55553 83.3641 5.77775 82.0513 4.35553C80.9354 3.11108 79.4913 2.1333 77.8503 1.51108C76.2092 0.888859 74.1744 0.622192 71.8113 0.622192H64.2626V24.8H68.1354V2.9333H72.2051C73.5836 2.9333 74.8308 3.19997 75.881 3.91108C77.0626 4.5333 77.9815 5.42219 78.7692 6.57775C79.5569 7.7333 80.2133 9.15553 80.6728 10.6666C81.1323 12.2666 81.3292 14.0444 81.3292 15.9111C81.3292 18.0444 81.1323 19.9111 80.6072 21.6C80.0821 23.2889 79.4256 24.6222 78.638 25.6889C77.7846 26.7555 76.8 27.6444 75.6841 28.2666C74.5026 28.8889 73.3867 29.1555 72.0739 29.1555H71.4174V31.3777H72.6646C74.7651 31.3777 76.6687 31.0222 78.2441 30.1333C79.8195 29.3333 81.198 28.1777 82.3795 26.7555C83.4954 25.4222 84.3487 23.7333 84.9395 21.7777C85.5303 19.9111 85.7928 17.8666 85.7928 15.7333C85.8585 13.4222 85.5959 11.3777 84.9395 9.42219Z" fill="#3F3B3D"/>
</g>
<defs>
<clipPath id="clip0_1_157">
<rect width="128" height="32" fill="white"/>
</clipPath>
</defs>
</svg>
