<svg width="94" height="26" viewBox="0 0 94 26" fill="none" xmlns="http://www.w3.org/2000/svg">
<path d="M0.476562 25V0.390625H4.41406V25H0.476562ZM6.20703 13.8906V10.0586H8.5625C10.2734 10.0586 11.1992 9.22656 11.3398 7.5625C11.3398 7.42188 11.3398 7.28125 11.3398 7.14062C11.1758 5.28906 10.25 4.31641 8.5625 4.22266H6.20703V0.390625H8.87891C13.1445 0.460938 15.2891 2.6875 15.3125 7.07031C15.3125 10.4688 14.2344 12.5898 12.0781 13.4336C11.1875 13.7383 10.1211 13.8906 8.87891 13.8906C8.83203 13.8906 7.94141 13.8906 6.20703 13.8906ZM17.2109 19.832V5.52344H21.0078V19.4102C21.0078 20.1602 21.3828 20.7344 22.1328 21.1328C22.5312 21.3438 22.9766 21.4492 23.4688 21.4492V25.1758C21.1953 25.1758 19.4258 24.2852 18.1602 22.5039C17.5273 21.5898 17.2109 20.6992 17.2109 19.832ZM25.0156 25.1758V21.4492C26.1875 21.4492 26.9609 20.9922 27.3359 20.0781C27.4297 19.8438 27.4766 19.6211 27.4766 19.4102V5.52344H31.2734V19.832C31.2734 20.9336 30.7812 22.0234 29.7969 23.1016C28.5078 24.4609 26.9141 25.1523 25.0156 25.1758ZM34.0859 25V0.00390625H38.0938V25H34.0859ZM40.2734 19.8672L43.7539 19.2344C43.7539 20.1484 44.2344 20.8398 45.1953 21.3086C45.6172 21.5195 46.0273 21.625 46.4258 21.625V25.1758C43.9414 25.1758 42.1484 24.2969 41.0469 22.5391C40.5312 21.6953 40.2734 20.8047 40.2734 19.8672ZM40.4492 10.9375C40.4492 8.78125 41.4453 7.17578 43.4375 6.12109C44.3984 5.62891 45.3594 5.38281 46.3203 5.38281V8.86328C45.1953 8.86328 44.4453 9.30859 44.0703 10.1992C43.9766 10.457 43.9297 10.7031 43.9297 10.9375C43.9297 11.6406 44.5391 12.2617 45.7578 12.8008C46.7891 13.2227 48.3594 13.6797 50.4688 14.1719C52.0859 14.5 53.2344 15.332 53.9141 16.668C54.2656 17.3945 54.4414 18.1914 54.4414 19.0586C54.4414 21.3789 53.5039 23.0898 51.6289 24.1914C50.5508 24.8477 49.3203 25.1758 47.9375 25.1758V21.6602C48.875 21.6602 49.6484 21.3438 50.2578 20.7109C50.6328 20.2656 50.8203 19.7734 50.8203 19.2344C50.8203 18.4141 49.9062 17.7227 48.0781 17.1602C47.7031 17.043 47.1172 16.8789 46.3203 16.668C45.125 16.3867 44.2812 16.1523 43.7891 15.9648C42.0547 15.1914 41 14.0547 40.625 12.5547C40.5078 12.0625 40.4492 11.5234 40.4492 10.9375ZM47.9023 8.86328V5.38281C49.9648 5.38281 51.6289 6.14453 52.8945 7.66797C53.6914 8.65234 54.0898 9.68359 54.0898 10.7617L50.6094 11.3594C50.6094 10.1641 49.9648 9.37891 48.6758 9.00391C48.3945 8.91016 48.1367 8.86328 47.9023 8.86328ZM55.707 9.25V5.62891H58.0977V0.00390625H61.8242V5.62891H64.1445V9.28516H61.8242L61.8594 19.0234C61.9062 20.4297 62.6094 21.1445 63.9688 21.168H64.707L65.5508 25H63.8984C60.9219 25 59.1055 23.8633 58.4492 21.5898C58.2148 20.7695 58.0977 19.7969 58.0977 18.6719V9.25H55.707ZM66.8164 20.4648C66.8164 21.7773 67.4492 22.8906 68.7148 23.8047C69.8164 24.6016 71.1289 25 72.6523 25V21.5195C70.918 21.4961 70.0391 20.8867 70.0156 19.6914V18.9531C70.0391 18.4844 70.1797 18.1562 70.4375 17.9688C70.625 17.8281 71.7266 17.4883 73.7422 16.9492C75.1484 16.5742 76.1328 16.2344 76.6953 15.9297V19.4102C76.6953 20.5352 76.168 21.2148 75.1133 21.4492C74.9023 21.4961 74.6797 21.5195 74.4453 21.5195V25C75.9922 24.9766 77.2344 24.5781 78.1719 23.8047C78.9922 24.6016 80.0234 25 81.2656 25V21.4844C80.6562 21.4375 80.3398 21.0625 80.3164 20.3594V10.9023C80.3164 9.49609 79.7539 8.24219 78.6289 7.14062C77.5039 6.03906 76.0977 5.48828 74.4102 5.48828V8.93359C75.4648 8.93359 76.168 9.36719 76.5195 10.2344C76.6367 10.5156 76.6953 10.8086 76.6953 11.1133V11.8516C76.6953 12.4609 75.4062 13.1641 72.8281 13.9609C70.3906 14.7109 69.0078 15.1797 68.6797 15.3672C67.4609 16.0938 66.8398 17.2188 66.8164 18.7422V20.4648ZM67.0977 10.375L70.332 11.6055C70.332 10.2695 70.8477 9.42578 71.8789 9.07422C72.1367 8.98047 72.3945 8.93359 72.6523 8.93359V5.48828C71.0352 5.48828 69.6406 6.07422 68.4688 7.24609C67.5547 8.18359 67.0977 9.22656 67.0977 10.375ZM83.7969 25V5.52344H87.5938V7.94922C88.25 6.91797 89.2344 6.17969 90.5469 5.73438C91.1562 5.52344 91.7539 5.41797 92.3398 5.41797H93.2539L92.375 9.10938C90.9922 9.13281 89.7852 9.80078 88.7539 11.1133C87.9805 12.1211 87.5938 13.1641 87.5938 14.2422V25H83.7969Z" fill="white"/>
</svg>
